<svg width="59" height="44" viewBox="0 0 59 44" fill="none" xmlns="http://www.w3.org/2000/svg">
<path d="M2.98023e-07 44L2.8 28C3.46667 24.2667 4.26667 20.9333 5.2 18C6.26667 14.9333 7.8 12 9.8 9.19999C11.8 6.39999 14.5333 3.59999 18 0.799995L24.6 7.79999C20.7333 11.4 18.0667 14.6 16.6 17.4C15.2667 20.2 14.2667 23.4 13.6 27L9.2 23.6H23.8L20.6 44H2.98023e-07ZM33.6 44L36.4 28C37.0667 24.2667 37.8667 20.9333 38.8 18C39.8667 14.9333 41.4 12 43.4 9.19999C45.4 6.39999 48.1333 3.59999 51.6 0.799995L58.2 7.79999C54.3333 11.4 51.6667 14.6 50.2 17.4C48.8667 20.2 47.8667 23.4 47.2 27L42.8 23.6H57.4L54.2 44H33.6Z" fill="url(#paint0_linear_245_1641)"/>
<defs>
<linearGradient id="paint0_linear_245_1641" x1="26.0759" y1="-122.209" x2="-94.7686" y2="-107.445" gradientUnits="userSpaceOnUse">
<stop stop-color="#F8A94A"/>
<stop offset="1" stop-color="#C97713"/>
</linearGradient>
</defs>
</svg>
