<svg width="50" height="50" viewBox="0 0 50 50" fill="none" xmlns="http://www.w3.org/2000/svg">
<g clip-path="url(#clip0_255_3398)">
<path d="M25 50C11.2146 50 0 38.7854 0 25C0 11.2146 11.2146 0 25 0C38.7854 0 50 11.2146 50 25C50 38.7854 38.7854 50 25 50ZM25 2.08333C12.3646 2.08333 2.08333 12.3646 2.08333 25C2.08333 37.6354 12.3646 47.9167 25 47.9167C37.6354 47.9167 47.9167 37.6354 47.9167 25C47.9167 12.3646 37.6354 2.08333 25 2.08333ZM15.625 39.5833C12.7542 39.5833 10.4167 37.2479 10.4167 34.375C10.4167 31.7896 12.4333 28.4646 13.7875 26.8604C14.225 26.3417 14.8646 26.0437 15.5396 26.0417H15.5437C16.2167 26.0417 16.8521 26.3354 17.2917 26.85C18.6062 28.3854 20.8312 31.7 20.8312 34.375C20.8312 37.2479 18.4958 39.5833 15.625 39.5833ZM15.3792 28.2021C14.1833 29.6187 12.5 32.4708 12.5 34.375C12.5 36.0979 13.9021 37.5 15.625 37.5C17.3479 37.5 18.75 36.0979 18.75 34.375C18.75 32.4521 16.9312 29.6312 15.7104 28.2021H15.3792ZM37.2687 35.0292C37.6292 34.5833 37.5625 33.9292 37.1167 33.5667C36.8958 33.3854 31.6208 29.1667 25.0021 29.1667C24.625 29.1667 24.2542 29.1792 23.8854 29.2062C23.3125 29.2479 22.8792 29.7458 22.9208 30.3188C22.9604 30.8917 23.4438 31.3208 24.0333 31.2854C24.3521 31.2625 24.675 31.25 25 31.25C30.8646 31.25 35.7542 35.1458 35.8042 35.1854C35.9979 35.3396 36.2271 35.4167 36.4562 35.4167C36.7604 35.4167 37.0604 35.2854 37.2687 35.0292Z" fill="#929292"/>
<path d="M16.6654 22.9167C17.816 22.9167 18.7487 21.9839 18.7487 20.8333C18.7487 19.6827 17.816 18.75 16.6654 18.75C15.5148 18.75 14.582 19.6827 14.582 20.8333C14.582 21.9839 15.5148 22.9167 16.6654 22.9167Z" fill="#929292"/>
<path d="M33.3333 22.9167C34.4839 22.9167 35.4167 21.9839 35.4167 20.8333C35.4167 19.6827 34.4839 18.75 33.3333 18.75C32.1827 18.75 31.25 19.6827 31.25 20.8333C31.25 21.9839 32.1827 22.9167 33.3333 22.9167Z" fill="#929292"/>
</g>
<defs>
<clipPath id="clip0_255_3398">
<rect width="50" height="50" fill="white"/>
</clipPath>
</defs>
</svg>
