<svg width="50" height="50" viewBox="0 0 50 50" fill="none" xmlns="http://www.w3.org/2000/svg">
<g clip-path="url(#clip0_255_3410)">
<path d="M25 37.5C18.9188 37.5 14.0917 33.25 13.8896 33.0687L15.2771 31.5146C15.3208 31.5542 19.7292 35.4167 25 35.4167C30.2708 35.4167 34.6792 31.5542 34.7229 31.5146L36.1104 33.0687C35.9083 33.25 31.0812 37.5 25 37.5ZM50 25C50 11.2146 38.7854 0 25 0C11.2146 0 0 11.2146 0 25C0 38.7854 11.2146 50 25 50C38.7854 50 50 38.7854 50 25ZM47.9167 25C47.9167 37.6354 37.6354 47.9167 25 47.9167C12.3646 47.9167 2.08333 37.6354 2.08333 25C2.08333 12.3646 12.3646 2.08333 25 2.08333C37.6354 2.08333 47.9167 12.3646 47.9167 25ZM15.625 14.5833C12.6437 14.5833 10.4167 18.9812 10.4167 22.9167H12.5C12.5 19.9375 14.1354 16.6667 15.625 16.6667C17.1146 16.6667 18.75 19.9375 18.75 22.9167H20.8333C20.8333 18.9812 18.6062 14.5833 15.625 14.5833ZM34.375 14.5833C31.3937 14.5833 29.1667 18.9812 29.1667 22.9167H31.25C31.25 19.9375 32.8854 16.6667 34.375 16.6667C35.8646 16.6667 37.5 19.9375 37.5 22.9167H39.5833C39.5833 18.9812 37.3563 14.5833 34.375 14.5833Z" fill="url(#paint0_linear_255_3410)"/>
<path fill-rule="evenodd" clip-rule="evenodd" d="M47.9167 25C47.9167 37.6354 37.6354 47.9167 25 47.9167C12.3646 47.9167 2.08333 37.6354 2.08333 25C2.08333 12.3646 12.3646 2.08333 25 2.08333C37.6354 2.08333 47.9167 12.3646 47.9167 25ZM13.8896 33.0687C14.0917 33.25 18.9188 37.5 25 37.5C31.0812 37.5 35.9083 33.25 36.1104 33.0687L34.7229 31.5146C34.6792 31.5542 30.2708 35.4167 25 35.4167C19.7292 35.4167 15.3208 31.5542 15.2771 31.5146L13.8896 33.0687ZM10.4167 22.9167C10.4167 18.9812 12.6437 14.5833 15.625 14.5833C18.6062 14.5833 20.8333 18.9812 20.8333 22.9167H18.75C18.75 19.9375 17.1146 16.6667 15.625 16.6667C14.1354 16.6667 12.5 19.9375 12.5 22.9167H10.4167ZM29.1667 22.9167C29.1667 18.9812 31.3937 14.5833 34.375 14.5833C37.3563 14.5833 39.5833 18.9812 39.5833 22.9167H37.5C37.5 19.9375 35.8646 16.6667 34.375 16.6667C32.8854 16.6667 31.25 19.9375 31.25 22.9167H29.1667Z" fill="#F8F8F8"/>
</g>
<defs>
<linearGradient id="paint0_linear_255_3410" x1="28.7975" y1="-12.7907" x2="-38.0369" y2="12.829" gradientUnits="userSpaceOnUse">
<stop stop-color="#F8A94A"/>
<stop offset="1" stop-color="#C97713"/>
</linearGradient>
<clipPath id="clip0_255_3410">
<rect width="50" height="50" fill="white"/>
</clipPath>
</defs>
</svg>
