<svg width="50" height="50" viewBox="0 0 50 50" fill="none" xmlns="http://www.w3.org/2000/svg">
<g clip-path="url(#clip0_255_3414)">
<path d="M25 50C11.2146 50 0 38.7854 0 25C0 11.2146 11.2146 0 25 0C38.7854 0 50 11.2146 50 25C50 38.7854 38.7854 50 25 50ZM25 2.08333C12.3646 2.08333 2.08333 12.3646 2.08333 25C2.08333 37.6354 12.3646 47.9167 25 47.9167C37.6354 47.9167 47.9167 37.6354 47.9167 25C47.9167 12.3646 37.6354 2.08333 25 2.08333ZM25.0146 41.6667C17.5688 41.6667 12.6292 34.8979 12.5 30.2375C12.5 29.5222 14.041 29.1646 17.1229 29.1646H37.5V30.2083C37.5 34.7687 32.5208 41.6667 25.0146 41.6667ZM14.7083 31.2479C15.4583 34.8917 19.4479 39.5833 25.0146 39.5833C30.5146 39.5833 34.6292 34.9333 35.3146 31.25C28.6437 31.2458 18.1708 31.25 14.7062 31.25L14.7083 31.2479ZM15.625 14.5833C12.6437 14.5833 10.4167 18.9833 10.4167 22.9167H12.5C12.5 19.9375 14.1354 16.6667 15.625 16.6667C17.1146 16.6667 18.75 19.9375 18.75 22.9167H20.8333C20.8333 18.9833 18.6062 14.5833 15.625 14.5833ZM34.375 14.5833C31.3937 14.5833 29.1667 18.9833 29.1667 22.9167H31.25C31.25 19.9375 32.8854 16.6667 34.375 16.6667C35.8646 16.6667 37.5 19.9375 37.5 22.9167H39.5833C39.5833 18.9833 37.3562 14.5833 34.375 14.5833Z" fill="#C97713"/>
</g>
<defs>
<clipPath id="clip0_255_3414">
<rect width="50" height="50" fill="white"/>
</clipPath>
</defs>
</svg>
