<svg width="51" height="50" viewBox="0 0 51 50" fill="none" xmlns="http://www.w3.org/2000/svg">
<g clip-path="url(#clip0_255_3394)">
<path d="M25.5 0C11.7146 0 0.5 11.2146 0.5 25C0.5 38.7854 11.7146 50 25.5 50C39.2854 50 50.5 38.7854 50.5 25C50.5 11.2146 39.2854 0 25.5 0ZM25.5 47.9167C12.8646 47.9167 2.58333 37.6354 2.58333 25C2.58333 12.3646 12.8646 2.08333 25.5 2.08333C38.1354 2.08333 48.4167 12.3646 48.4167 25C48.4167 37.6354 38.1354 47.9167 25.5 47.9167ZM15.4479 20.8333C13.8271 20.8333 12.1937 20.3854 10.8104 19.5417L11.8958 17.7625C13.2646 18.5958 14.9521 18.925 16.5208 18.6604C17.7833 18.4479 19.5646 17.7437 20.8812 15.5833L22.6604 16.6688C20.9354 19.5 18.5562 20.4333 16.8667 20.7167C16.4 20.7958 15.9229 20.8333 15.4479 20.8333ZM39.1437 17.7646L40.2292 19.5437C38.8458 20.3875 37.2125 20.8354 35.5917 20.8354C35.1167 20.8354 34.6417 20.7958 34.175 20.7187C32.4833 20.4354 30.1062 19.5021 28.3813 16.6708L30.1604 15.5854C31.4771 17.7458 33.2583 18.45 34.5208 18.6625C36.0917 18.9292 37.775 18.6 39.1437 17.7646ZM25.5 27.0833H25.475C16.5167 27.0833 13.1833 37.3333 13.0458 37.7687L12.4729 39.5917L14.3167 39.0854C14.375 39.0708 20.1604 37.4979 25.4896 37.4979C30.8187 37.4979 36.625 39.0687 36.6833 39.0854L38.5292 39.5896L37.95 37.7646C37.8125 37.3292 34.4583 27.0812 25.5021 27.0812L25.5 27.0833ZM25.4875 35.4167C21.8104 35.4167 18.0271 36.1 15.7854 36.5896C17.0833 33.9021 20.1292 29.1667 25.475 29.1667H25.5C30.8437 29.1667 33.9021 33.9021 35.2042 36.5917C32.9562 36.1 29.1667 35.4167 25.4875 35.4167Z" fill="#373F41"/>
</g>
<defs>
<clipPath id="clip0_255_3394">
<rect width="50" height="50" fill="white" transform="translate(0.5)"/>
</clipPath>
</defs>
</svg>
