<svg width="44" height="44" viewBox="0 0 44 44" fill="none" xmlns="http://www.w3.org/2000/svg">
<circle cx="22" cy="22" r="22" fill="url(#paint0_linear_244_2332)"/>
<path d="M22.6333 31.1C23.4333 30.6332 24.8333 29.8335 25.2668 29.2332C25.8334 28.4668 26.6667 25.7667 26.1667 26.3666C25.5667 27.0668 24.6333 27.3334 23.8334 27.6001C24.5666 26.9999 25.5334 26.0999 25.8001 25.5333C26.2 24.6667 26.5 21.8667 26.1334 22.5332C25.6667 23.3666 24.7333 23.8333 24 24.2335C24.6333 23.5666 25.7 22.4 25.9333 21.7668C26.2334 20.8332 26.2334 18 25.9333 18.7334C25.6 19.4666 24.7 19.9666 23.8666 20.4001C24.5001 19.7332 25.2668 18.8 25.4667 18.2666C25.6667 17.6001 25.7334 15.9667 25.6334 15.3667L26.0333 12.4333C25.2333 16.3666 25.6334 15.4666 23.2334 17.4C23.7334 16.7001 25 14.9 25.1334 14.0334C25.2667 13.2666 25 11.3333 24.7667 10.7666L24.8333 6.8L24.6001 10.7666C24.4334 11.4001 24.0333 11.8999 23.6 12.3667C23.7667 11.7334 23.9001 11.0333 23.8334 10.5332C23.7667 9.99986 23 8.19999 22.6001 7.66663L22.3667 2.56671L22.3334 4.80005L22.2667 2.56671L22.0666 7.66663C21.6667 8.19999 20.9 9.99986 20.8333 10.5332C20.7668 11.0333 20.8667 11.7334 21.0667 12.3667C20.6334 11.8999 20.2333 11.4001 20.0666 10.7666L19.8334 6.8L19.8667 10.7666C19.6667 11.3333 19.4001 13.2666 19.5333 14.0334C19.6667 14.9 20.9333 16.7001 21.4333 17.4C18.9667 15.4333 19.4334 16.3333 18.6334 12.4333L19.0333 15.3667C18.9333 15.9667 18.9667 17.6001 19.2 18.2666C19.4001 18.8 20.1666 19.7332 20.8 20.4001C19.9667 19.9666 19.0333 19.4666 18.7334 18.7334C18.4333 18 18.4333 20.8332 18.7334 21.7668C18.9667 22.4 20.0001 23.5666 20.6667 24.2335C19.9334 23.8333 19 23.3666 18.5334 22.5332C18.1333 21.8667 18.4667 24.6667 18.8666 25.5333C19.1334 26.0999 20.1001 26.9999 20.8333 27.6001C20.0334 27.3334 19.0667 27.0668 18.5 26.3666C18 25.7667 18.8333 28.4668 19.4001 29.2332C19.8 29.7999 21.0667 30.5666 21.9001 31.0334L21.8334 35.3666C19.6667 31.5001 17.3667 29.8335 16 24.6667C16.1 29.2668 17.9 33.8334 21.8334 36.2668L21.7667 40H22.7333V39.2C25.4 37.3668 27.5 34.2668 27.8667 31.0667C27.9334 30.3668 27.9334 29.6001 28 28.8666C25.9 35.2667 23.7 35.8333 22.7001 37.5333L22.6333 31.1Z" fill="white"/>
<path d="M22.6334 31.1C23.4333 30.6332 24.8333 29.8335 25.2668 29.2332C25.8334 28.4668 26.6667 25.7667 26.1667 26.3666C25.5667 27.0668 24.6333 27.3334 23.8334 27.6001C24.5666 26.9999 25.5334 26.0999 25.8001 25.5333C26.2 24.6667 26.5001 21.8667 26.1334 22.5332C25.6667 23.3666 24.7333 23.8333 24 24.2335C24.6333 23.5666 25.7 22.4 25.9333 21.7668C26.2334 20.8332 26.2334 18 25.9333 18.7334C25.6 19.4666 24.7 19.9666 23.8667 20.4001C24.5001 19.7332 25.2668 18.8 25.4667 18.2666C25.6667 17.6001 25.7334 15.9667 25.6334 15.3667L26.0333 12.4333C25.2333 16.3666 25.6334 15.4666 23.2334 17.4C23.7334 16.7001 25 14.9 25.1334 14.0334C25.2668 13.2666 25 11.3333 24.7667 10.7666L24.8333 6.8L24.6001 10.7666C24.4334 11.4001 24.0333 11.8999 23.6 12.3667C23.7667 11.7334 23.9001 11.0333 23.8334 10.5332C23.7667 9.99986 23 8.19999 22.6001 7.66663L22.3667 2.56671V40H22.7333V39.2C25.4 37.3668 27.5 34.2668 27.8668 31.0667C27.9334 30.3668 27.9334 29.6001 28 28.8666C25.9 35.2667 23.7 35.8333 22.7001 37.5333L22.6334 31.1Z" fill="#E2E5E6"/>
<defs>
<linearGradient id="paint0_linear_244_2332" x1="25.3418" y1="-11.2558" x2="-33.4725" y2="11.2896" gradientUnits="userSpaceOnUse">
<stop stop-color="#F8A94A"/>
<stop offset="1" stop-color="#C97713"/>
</linearGradient>
</defs>
</svg>
