<svg width="51" height="50" viewBox="0 0 51 50" fill="none" xmlns="http://www.w3.org/2000/svg">
<g clip-path="url(#clip0_255_3404)">
<path d="M25.5 50C11.4389 50 0 38.7854 0 25C0 11.2146 11.4389 0 25.5 0C39.5611 0 51 11.2146 51 25C51 38.7854 39.5611 50 25.5 50ZM25.5 2.08333C12.6119 2.08333 2.125 12.3646 2.125 25C2.125 37.6354 12.6119 47.9167 25.5 47.9167C38.3881 47.9167 48.875 37.6354 48.875 25C48.875 12.3646 38.3881 2.08333 25.5 2.08333Z" fill="#F8A94A"/>
<path d="M17 22.9167C18.1736 22.9167 19.125 21.9839 19.125 20.8333C19.125 19.6827 18.1736 18.75 17 18.75C15.8264 18.75 14.875 19.6827 14.875 20.8333C14.875 21.9839 15.8264 22.9167 17 22.9167Z" fill="#F8A94A"/>
<path d="M34 22.9167C35.1736 22.9167 36.125 21.9839 36.125 20.8333C36.125 19.6827 35.1736 18.75 34 18.75C32.8264 18.75 31.875 19.6827 31.875 20.8333C31.875 21.9839 32.8264 22.9167 34 22.9167Z" fill="#F8A94A"/>
</g>
<defs>
<clipPath id="clip0_255_3404">
<rect width="51" height="50" fill="white"/>
</clipPath>
</defs>
</svg>
