<svg width="19" height="18" viewBox="0 0 19 18" fill="none" xmlns="http://www.w3.org/2000/svg">
<path d="M15.5712 5.51013L7.01124 1.23013C1.26124 -1.64987 -1.09876 0.710135 1.78124 6.46013L2.65124 8.20013C2.90124 8.71013 2.90124 9.30013 2.65124 9.81013L1.78124 11.5401C-1.09876 17.2901 1.25124 19.6501 7.01124 16.7701L15.5712 12.4901C19.4112 10.5701 19.4112 7.43013 15.5712 5.51013ZM12.3412 9.75013H6.94124C6.53124 9.75013 6.19124 9.41013 6.19124 9.00013C6.19124 8.59013 6.53124 8.25013 6.94124 8.25013H12.3412C12.7512 8.25013 13.0912 8.59013 13.0912 9.00013C13.0912 9.41013 12.7512 9.75013 12.3412 9.75013Z" fill="white"/>
</svg>
