<svg width="70" height="70" viewBox="0 0 70 70" fill="none" xmlns="http://www.w3.org/2000/svg">
<path d="M66 0H4C1.79086 0 0 1.79086 0 4V66C0 68.2091 1.79086 70 4 70H66C68.2091 70 70 68.2091 70 66V4C70 1.79086 68.2091 0 66 0Z" fill="#F8A94A"/>
<path d="M46.24 32.5002C45.38 32.5002 44.7 31.8002 44.7 30.9602C44.7 30.2202 43.96 28.6802 42.72 27.3402C41.5 26.0402 40.16 25.2802 39.04 25.2802C38.18 25.2802 37.5 24.5802 37.5 23.7402C37.5 22.9002 38.2 22.2002 39.04 22.2002C41.04 22.2002 43.14 23.2802 44.98 25.2202C46.7 27.0402 47.8 29.3002 47.8 30.9402C47.8 31.8002 47.1 32.5002 46.24 32.5002Z" fill="white"/>
<path d="M53.4634 32.5C52.6034 32.5 51.9234 31.8 51.9234 30.96C51.9234 23.86 46.1434 18.1 39.0634 18.1C38.2034 18.1 37.5234 17.4 37.5234 16.56C37.5234 15.72 38.2034 15 39.0434 15C47.8434 15 55.0034 22.16 55.0034 30.96C55.0034 31.8 54.3034 32.5 53.4634 32.5Z" fill="white"/>
<path d="M33.1 40.9L29.4 44.6C28.62 45.38 27.38 45.38 26.58 44.62C26.36 44.4 26.14 44.2 25.92 43.98C23.86 41.9 22 39.72 20.34 37.44C18.7 35.16 17.38 32.88 16.42 30.62C15.48 28.34 15 26.16 15 24.08C15 22.72 15.24 21.42 15.72 20.22C16.2 19 16.96 17.88 18.02 16.88C19.3 15.62 20.7 15 22.18 15C22.74 15 23.3 15.12 23.8 15.36C24.32 15.6 24.78 15.96 25.14 16.48L29.78 23.02C30.14 23.52 30.4 23.98 30.58 24.42C30.76 24.84 30.86 25.26 30.86 25.64C30.86 26.12 30.72 26.6 30.44 27.06C30.18 27.52 29.8 28 29.32 28.48L27.8 30.06C27.58 30.28 27.48 30.54 27.48 30.86C27.48 31.02 27.5 31.16 27.54 31.32C27.6 31.48 27.66 31.6 27.7 31.72C28.06 32.38 28.68 33.24 29.56 34.28C30.46 35.32 31.42 36.38 32.46 37.44C32.66 37.64 32.88 37.84 33.08 38.04C33.88 38.82 33.9 40.1 33.1 40.9Z" fill="white"/>
<path d="M54.9431 47.6601C54.9431 48.2201 54.8431 48.8001 54.6431 49.3601C54.5831 49.5201 54.5231 49.6801 54.4431 49.8401C54.1031 50.5601 53.6631 51.2401 53.0831 51.8801C52.1031 52.9601 51.0231 53.7401 49.8031 54.2401C49.7831 54.2401 49.7631 54.2601 49.7431 54.2601C48.5631 54.7401 47.2831 55.0001 45.9031 55.0001C43.8631 55.0001 41.6831 54.5201 39.3831 53.5401C37.0831 52.5601 34.7831 51.2401 32.5031 49.5801C31.7231 49.0001 30.9431 48.4201 30.2031 47.8001L36.7431 41.2601C37.3031 41.6801 37.8031 42.0001 38.2231 42.2201C38.3231 42.2601 38.4431 42.3201 38.5831 42.3801C38.7431 42.4401 38.9031 42.4601 39.0831 42.4601C39.4231 42.4601 39.6831 42.3401 39.9031 42.1201L41.4231 40.6201C41.9231 40.1201 42.4031 39.7401 42.8631 39.5001C43.3231 39.2201 43.7831 39.0801 44.2831 39.0801C44.6631 39.0801 45.0631 39.1601 45.5031 39.3401C45.9431 39.5201 46.4031 39.7801 46.9031 40.1201L53.5231 44.8201C54.0431 45.1801 54.4031 45.6001 54.6231 46.1001C54.8231 46.6001 54.9431 47.1001 54.9431 47.6601Z" fill="white"/>
</svg>
