<svg width="70" height="71" viewBox="0 0 70 71" fill="none" xmlns="http://www.w3.org/2000/svg">
<path d="M66 0.5H4C1.79086 0.5 0 2.29086 0 4.5V66.5C0 68.7091 1.79086 70.5 4 70.5H66C68.2091 70.5 70 68.7091 70 66.5V4.5C70 2.29086 68.2091 0.5 66 0.5Z" fill="#F8A94A"/>
<path d="M54.866 20.384C53.102 16.289 49.217 14 43.799 14H26.201C19.46 14 14 19.46 14 26.201V43.799C14 49.217 16.289 53.102 20.384 54.866C20.783 55.034 21.245 54.929 21.539 54.635L54.635 21.539C54.95 21.224 55.055 20.762 54.866 20.384ZM31.913 35.504C31.094 36.302 30.023 36.68 28.952 36.68C27.881 36.68 26.81 36.281 25.991 35.504C23.849 33.488 21.497 30.275 22.4 26.453C23.198 22.988 26.264 21.434 28.952 21.434C31.64 21.434 34.706 22.988 35.504 26.474C36.386 30.275 34.034 33.488 31.913 35.504Z" fill="white"/>
<path d="M50.6855 52.9129C51.1475 53.3749 51.0845 54.1309 50.5175 54.4459C48.6695 55.4749 46.4225 55.9999 43.7975 55.9999H26.1995C25.5905 55.9999 25.3385 55.2859 25.7585 54.8659L38.4425 42.1819C38.8625 41.7619 39.5135 41.7619 39.9335 42.1819L50.6855 52.9129Z" fill="white"/>
<path d="M56.0055 26.2007V43.7987C56.0055 46.4237 55.4806 48.6917 54.4516 50.5187C54.1366 51.0857 53.3806 51.1277 52.9186 50.6867L42.1666 39.9347C41.7466 39.5147 41.7466 38.8637 42.1666 38.4437L54.8506 25.7597C55.2916 25.3397 56.0055 25.5917 56.0055 26.2007Z" fill="white"/>
<path d="M29.0141 25.5291C27.8381 25.5291 26.9141 26.4741 26.9141 27.6291C26.9141 28.784 27.8591 29.729 29.0141 29.729C30.1691 29.729 31.1141 28.784 31.1141 27.6291C31.1141 26.4741 30.1691 25.5291 29.0141 25.5291Z" fill="white"/>
</svg>
