<svg width="70" height="70" viewBox="0 0 70 70" fill="none" xmlns="http://www.w3.org/2000/svg">
<path d="M66 0H4C1.79086 0 0 1.79086 0 4V66C0 68.2091 1.79086 70 4 70H66C68.2091 70 70 68.2091 70 66V4C70 1.79086 68.2091 0 66 0Z" fill="#F8A94A"/>
<path d="M38.2042 50.5986C36.8922 49.5874 37.3077 47.511 38.9078 47.0825L44.0001 45.719C45.0398 45.4406 46.1133 46.0349 46.4293 47.0638L48.5569 53.9922C49.1292 55.8561 46.9684 57.3537 45.424 56.1634L38.2042 50.5986ZM55.3138 32.6131C56.8319 31.4508 56.0099 29.0252 54.098 29.0252H42.3533C41.4762 29.0252 40.7014 28.4536 40.4425 27.6155L36.9109 16.1849C36.3302 14.3054 33.6698 14.3054 33.0891 16.1849L29.5575 27.6155C29.2986 28.4536 28.5238 29.0252 27.6467 29.0252H15.9247C14.0104 29.0252 13.1899 31.4557 14.7125 32.616L24.3651 39.971C25.0325 40.4795 25.3115 41.3506 25.0639 42.1522L21.4412 53.8776C20.8668 55.7368 23.0164 57.2382 24.5642 56.0588L35.0744 48.0503L44.5982 40.8176L55.3138 32.6131Z" fill="white"/>
</svg>
