<svg width="70" height="71" viewBox="0 0 70 71" fill="none" xmlns="http://www.w3.org/2000/svg">
<path d="M66 0.5H4C1.79086 0.5 0 2.29086 0 4.5V66.5C0 68.7091 1.79086 70.5 4 70.5H66C68.2091 70.5 70 68.7091 70 66.5V4.5C70 2.29086 68.2091 0.5 66 0.5Z" fill="#F8A94A"/>
<path d="M35 15.5C23.98 15.5 15 24.48 15 35.5C15 46.52 23.98 55.5 35 55.5C46.02 55.5 55 46.52 55 35.5C55 24.48 46.02 15.5 35 15.5ZM43.7 42.64C43.42 43.12 42.92 43.38 42.4 43.38C42.14 43.38 41.88 43.32 41.64 43.16L35.44 39.46C33.9 38.54 32.76 36.52 32.76 34.74V26.54C32.76 25.72 33.44 25.04 34.26 25.04C35.08 25.04 35.76 25.72 35.76 26.54V34.74C35.76 35.46 36.36 36.52 36.98 36.88L43.18 40.58C43.9 41 44.14 41.92 43.7 42.64Z" fill="white"/>
</svg>
