<svg width="30" height="30" viewBox="0 0 30 30" fill="none" xmlns="http://www.w3.org/2000/svg">
<rect width="30" height="30" rx="15" fill="url(#paint0_linear_244_1907)"/>
<circle cx="15.16" cy="11" r="3.5" stroke="white"/>
<path d="M22.5 17.1426C22.5 17.4782 22.3416 17.9848 21.9797 18.5856C21.625 19.1745 21.101 19.8097 20.4372 20.3946C19.1072 21.5665 17.2594 22.5 15.1569 22.5C13.0511 22.5 11.1213 21.5638 9.7094 20.3858C9.00531 19.7984 8.44296 19.1612 8.06051 18.5715C7.66897 17.9678 7.5 17.4669 7.5 17.1426C7.5 16.9951 7.53461 16.9133 7.57211 16.861C7.6122 16.805 7.68639 16.7404 7.83191 16.6803C8.14369 16.5515 8.65148 16.4949 9.38538 16.5004C10.0081 16.505 10.7352 16.5522 11.5577 16.6055C11.6862 16.6139 11.8169 16.6223 11.95 16.6308C12.9275 16.6932 14.0137 16.7551 15.1569 16.7551C16.3002 16.7551 17.367 16.6932 18.3157 16.6308C18.4588 16.6213 18.5987 16.6119 18.7356 16.6028C19.5143 16.5505 20.1933 16.5049 20.7717 16.5004C21.4665 16.4949 21.9284 16.552 22.2048 16.675C22.3309 16.7311 22.3947 16.7909 22.4305 16.8452C22.4659 16.8987 22.5 16.9862 22.5 17.1426Z" stroke="white"/>
<defs>
<linearGradient id="paint0_linear_244_1907" x1="17.2785" y1="-7.67442" x2="-22.8222" y2="7.69743" gradientUnits="userSpaceOnUse">
<stop stop-color="#F8A94A"/>
<stop offset="1" stop-color="#C97713"/>
</linearGradient>
</defs>
</svg>
