<svg width="16" height="16" viewBox="0 0 16 16" fill="none" xmlns="http://www.w3.org/2000/svg">
<circle cx="8.16016" cy="4" r="3.5" stroke="white"/>
<path d="M15.5 10.1426C15.5 10.4782 15.3416 10.9848 14.9797 11.5856C14.625 12.1745 14.101 12.8097 13.4372 13.3946C12.1072 14.5665 10.2594 15.5 8.15686 15.5C6.05109 15.5 4.12133 14.5638 2.7094 13.3858C2.00531 12.7984 1.44296 12.1612 1.06051 11.5715C0.66897 10.9678 0.5 10.4669 0.5 10.1426C0.5 9.99509 0.53461 9.91329 0.572105 9.86098C0.612199 9.80504 0.68639 9.74038 0.831907 9.68027C1.14369 9.55147 1.65148 9.49492 2.38538 9.50037C3.0081 9.50499 3.73521 9.55216 4.55775 9.60552C4.68618 9.61385 4.81693 9.62233 4.94998 9.63083C5.92747 9.69324 7.01374 9.7551 8.15686 9.7551C9.30023 9.7551 10.367 9.69322 11.3157 9.63076C11.4588 9.62135 11.5987 9.61195 11.7356 9.60276C12.5143 9.55048 13.1933 9.5049 13.7717 9.50036C14.4665 9.49492 14.9284 9.55203 15.2048 9.67499C15.3309 9.73107 15.3947 9.7909 15.4305 9.84516C15.4659 9.89873 15.5 9.98618 15.5 10.1426Z" stroke="white"/>
</svg>