<svg width="18" height="20" viewBox="0 0 18 20" fill="none" xmlns="http://www.w3.org/2000/svg">
<path d="M16.8975 5.8525L11.6475 0.6025C11.5421 0.496981 11.3991 0.437631 11.25 0.4375H2.25C1.9019 0.4375 1.56806 0.575781 1.32192 0.821922C1.07578 1.06806 0.9375 1.4019 0.9375 1.75V18.25C0.9375 18.5981 1.07578 18.9319 1.32192 19.1781C1.56806 19.4242 1.9019 19.5625 2.25 19.5625H15.75C16.0981 19.5625 16.4319 19.4242 16.6781 19.1781C16.9242 18.9319 17.0625 18.5981 17.0625 18.25V6.25C17.0624 6.10087 17.003 5.95789 16.8975 5.8525ZM11.8125 2.3575L15.1425 5.6875H11.8125V2.3575ZM15.75 18.4375H2.25C2.20027 18.4375 2.15258 18.4177 2.11742 18.3826C2.08225 18.3474 2.0625 18.2997 2.0625 18.25V1.75C2.0625 1.70027 2.08225 1.65258 2.11742 1.61742C2.15258 1.58225 2.20027 1.5625 2.25 1.5625H10.6875V6.25C10.6875 6.39918 10.7468 6.54226 10.8523 6.64775C10.9577 6.75324 11.1008 6.8125 11.25 6.8125H15.9375V18.25C15.9375 18.2997 15.9177 18.3474 15.8826 18.3826C15.8474 18.4177 15.7997 18.4375 15.75 18.4375Z" fill="#989C9D"/>
</svg>
